<svg xmlns="http://www.w3.org/2000/svg" height="197" width="240">
    <g transform="translate(-241,-135) scale(0.5 0.5)">
        <g transform="matrix(2.9999,1.6629,-1.6629,2.9999,680.0847,247.492)">
            <svg width="80.27279830485263"
                 height="102.27564161962461"
                 viewBox="10.022044591403807,-0.9837719136779182,80.27279830485263,102.27564161962461">
                <defs>
                    <linearGradient x1="0" y1="0.5" x2="1" y2="0.5" id="linearGradientSk75kwmulbg">
                        <stop offset="0%" stop-color="#8bd12a"/>
                        <stop offset="100%" stop-color="#8bd12a"/>
                    </linearGradient>
                </defs>
                <g>
                    <path d="M65.972,26.195c-7.961,7.236-14.737,15.846-20.222,25.188C37.261,64.682,29.704,79.02,27.271,94.483  c-0.167,1.08,0.581,1.852,1.373,1.807c8.801-0.5,16.18-3.28,22.471-6.531C90.475,69.44,85.554,11.877,84.574,4.73  c-0.035-0.278-0.247-0.855-0.802-0.682c-2.938,0.914-13.076,4.262-24.687,10.255C33.797,27.361,1.242,52.382,21.215,92.782  c0.366,0.722,1.852,0.672,1.988-0.021c5.057-26.521,21.455-50.09,42.319-67.039C66.644,24.81,67.243,25.034,65.972,26.195z" fill="url('#linearGradientSk75kwmulbg')"/>
                </g>
            </svg>
        </g>
        <g transform="matrix(2.2886,-1.0189,1.0189,2.2886,465.7644,376.0399)">
            <svg width="80.27279830485263" height="102.27564161962461" viewBox="10.022044591403807,-0.9837719136779182,80.27279830485263,102.27564161962461">
                <defs>
                    <linearGradient x1="0" y1="0.5" x2="1" y2="0.5" id="linearGradientSk75kwmulbm">
                        <stop offset="0%" stop-color="#a4f03a"/>
                        <stop offset="100%" stop-color="#a4f03a"/>
                    </linearGradient>
                </defs>
                <g>
                    <path d="M65.972,26.195c-7.961,7.236-14.737,15.846-20.222,25.188C37.261,64.682,29.704,79.02,27.271,94.483  c-0.167,1.08,0.581,1.852,1.373,1.807c8.801-0.5,16.18-3.28,22.471-6.531C90.475,69.44,85.554,11.877,84.574,4.73  c-0.035-0.278-0.247-0.855-0.802-0.682c-2.938,0.914-13.076,4.262-24.687,10.255C33.797,27.361,1.242,52.382,21.215,92.782  c0.366,0.722,1.852,0.672,1.988-0.021c5.057-26.521,21.455-50.09,42.319-67.039C66.644,24.81,67.243,25.034,65.972,26.195z" fill="url('#linearGradientSk75kwmulbm')"/>
                </g>
            </svg>
        </g>
    </g>
</svg>